/* XPM */
static char * junk_hrm_mark_xpm[] = {
"16 16 100 2",
"  	c None",
". 	c #FFFFFF",
"+ 	c #000000",
"@ 	c #613C3C",
"# 	c #050404",
"$ 	c #B87374",
"% 	c #3D2626",
"& 	c #4F3132",
"* 	c #2E1D1E",
"= 	c #191213",
"- 	c #A87073",
"; 	c #130C0C",
"> 	c #0E0606",
", 	c #6F4647",
"' 	c #E28E90",
") 	c #DD888A",
"! 	c #DE8C8E",
"~ 	c #D38385",
"{ 	c #3A292A",
"] 	c #22100F",
"^ 	c #6C2A25",
"/ 	c #E2493B",
"( 	c #8E4744",
"_ 	c #E58D8D",
": 	c #EF9192",
"< 	c #DB8B8D",
"[ 	c #EE9090",
"} 	c #DC8383",
"| 	c #D6888A",
"1 	c #382E30",
"2 	c #1C0502",
"3 	c #E13726",
"4 	c #E94A3C",
"5 	c #B72B1C",
"6 	c #C47C7D",
"7 	c #D48A8D",
"8 	c #B87D81",
"9 	c #826265",
"0 	c #B67D80",
"a 	c #B27E83",
"b 	c #E88E8E",
"c 	c #937075",
"d 	c #262022",
"e 	c #E2564C",
"f 	c #1D0502",
"g 	c #C1200E",
"h 	c #B11C0B",
"i 	c #E14637",
"j 	c #EC3A27",
"k 	c #CC5850",
"l 	c #945756",
"m 	c #A0787D",
"n 	c #AD7E83",
"o 	c #DB8A8D",
"p 	c #CB878A",
"q 	c #5E4F54",
"r 	c #4E1611",
"s 	c #D41F09",
"t 	c #9A362D",
"u 	c #1B0502",
"v 	c #C3220F",
"w 	c #B91F0D",
"x 	c #BE2413",
"y 	c #CB3222",
"z 	c #F45C50",
"A 	c #E54D40",
"B 	c #E77976",
"C 	c #CE8183",
"D 	c #89686D",
"E 	c #544D52",
"F 	c #311B1A",
"G 	c #7E251C",
"H 	c #F5594C",
"I 	c #9A3730",
"J 	c #430C05",
"K 	c #A21C0D",
"L 	c #B71F0E",
"M 	c #AE1A08",
"N 	c #E43E2E",
"O 	c #EC584C",
"P 	c #C46D6C",
"Q 	c #2A2629",
"R 	c #2F1C1C",
"S 	c #6B2A25",
"T 	c #D56059",
"U 	c #500C04",
"V 	c #000001",
"W 	c #4C0D06",
"X 	c #972013",
"Y 	c #BD1F0C",
"Z 	c #D04538",
"` 	c #C34439",
" .	c #862C24",
"..	c #89251A",
"+.	c #5C2926",
"@.	c #140000",
"#.	c #020101",
"$.	c #0D0201",
"%.	c #D4210C",
"&.	c #FF6F65",
"                            . . ",
"                          . + . ",
"                        . + + . ",
"          @ . .       . + + + . ",
"        # $ . + . % . + + + .   ",
"          & . + + . + + + .     ",
"      * = - . + + + + + . ;     ",
"    > , ' ) ! . + + + . ~ {     ",
"] ^ / ( _ : < [ . + . } | 1 +   ",
"2 3 4 5 6 7 8 9 0 . a b c d e + ",
"f g h i j k l m n o p c q r s t ",
"  u v w x y z A B C D E F G H I ",
"    + J K L M N O P Q R S T U + ",
"        V W X Y Z `  ...+.@.    ",
"            #.$.%.&.+ #.        ",
"              + + +             "};
