/* XPM */
static char * junk_xpm[] = {
"16 16 126 2",
"  	c None",
". 	c #616666",
"+ 	c #687375",
"@ 	c #050606",
"# 	c #B8C3C5",
"$ 	c #EDF2F4",
"% 	c #D5DEE0",
"& 	c #6B7779",
"* 	c #3D4141",
"= 	c #4F5455",
"- 	c #C4D3D7",
"; 	c #C6CFD0",
"> 	c #DBEDF1",
", 	c #4C5D61",
"' 	c #353E40",
") 	c #343839",
"! 	c #2E3536",
"~ 	c #2E3233",
"{ 	c #191F21",
"] 	c #A8BFC4",
"^ 	c #C5D8DC",
"/ 	c #B1C6CB",
"( 	c #9EB6BA",
"_ 	c #77A0A9",
": 	c #E2EEF0",
"< 	c #99A8AC",
"[ 	c #ACC7CD",
"} 	c #131414",
"| 	c #0E0B0A",
"1 	c #6F7778",
"2 	c #E2F2F5",
"3 	c #DDE8EA",
"4 	c #DEEEF1",
"5 	c #D7EBEE",
"6 	c #B3CACF",
"7 	c #DBE1E1",
"8 	c #D7DCDE",
"9 	c #8FA3A7",
"0 	c #D3DFE2",
"a 	c #3A4548",
"b 	c #221B1A",
"c 	c #6C473F",
"d 	c #E27C65",
"e 	c #8E7973",
"f 	c #E5EFF0",
"g 	c #EFF7F9",
"h 	c #DBECF0",
"i 	c #EEF4F5",
"j 	c #E9F2F4",
"k 	c #D1DDE0",
"l 	c #BAC0C2",
"m 	c #DCDFDF",
"n 	c #D6E7EB",
"o 	c #384E52",
"p 	c #000000",
"q 	c #1C0904",
"r 	c #E15E40",
"s 	c #E97E66",
"t 	c #B74930",
"u 	c #C4D2D4",
"v 	c #D4EBEF",
"w 	c #B8D5DB",
"x 	c #82A6AC",
"y 	c #B6D4DA",
"z 	c #D4E7E9",
"A 	c #B2D6DE",
"B 	c #E8F1F2",
"C 	c #93BEC7",
"D 	c #263639",
"E 	c #E29381",
"F 	c #1D0804",
"G 	c #C13718",
"H 	c #B13013",
"I 	c #E1775E",
"J 	c #EC6242",
"K 	c #CC9588",
"L 	c #949493",
"M 	c #A0CCD4",
"N 	c #ADD6DF",
"O 	c #DBEBEF",
"P 	c #CBE5EA",
"Q 	c #5E868F",
"R 	c #4E261D",
"S 	c #D43410",
"T 	c #9A5C4D",
"U 	c #1B0804",
"V 	c #C3391A",
"W 	c #B93416",
"X 	c #BE3E21",
"Y 	c #CB553A",
"Z 	c #F49D88",
"` 	c #E5836D",
" .	c #E7CEC8",
"..	c #CEDCDE",
"+.	c #89B0B9",
"@.	c #54838C",
"#.	c #312E2D",
"$.	c #7E3F30",
"%.	c #F59882",
"&.	c #9A5E51",
"*.	c #431409",
"=.	c #A23016",
"-.	c #B73518",
";.	c #AE2C0E",
">.	c #E46A4E",
",.	c #EC9581",
"'.	c #C4B9B7",
").	c #2A4145",
"!.	c #2F2F30",
"~.	c #6B473F",
"{.	c #D5A397",
"].	c #501407",
"^.	c #000001",
"/.	c #4C160A",
"(.	c #973621",
"_.	c #BD3415",
":.	c #D07560",
"<.	c #C37361",
"[.	c #864B3E",
"}.	c #893F2D",
"|.	c #5C4641",
"1.	c #140000",
"2.	c #020101",
"3.	c #0D0402",
"4.	c #D43814",
"5.	c #FFBCAC",
"                                ",
"                                ",
"                                ",
"          . +                   ",
"        @ # $ % & *             ",
"          = - ; > , ' ) !       ",
"      ~ { ] ^ / ( _ : < [ }     ",
"    | 1 2 3 4 5 6 7 8 9 0 a     ",
"b c d e f g h i j k l m n o p   ",
"q r s t u v w x y z A B C D E p ",
"F G H I J K L M N O P C Q R S T ",
"  U V W X Y Z `  ...+.@.#.$.%.&.",
"    p *.=.-.;.>.,.'.).!.~.{.].p ",
"        ^./.(._.:.<.[.}.|.1.    ",
"            2.3.4.5.p 2.        ",
"              p p p             "};
